<svg id="Capa_1" data-name="Capa 1" xmlns="http://www.w3.org/2000/svg" viewBox="0 0 276.66 276.62">
	<defs>
		<style>.cls-1{fill:#fff;}</style>
	</defs>
	<title>email</title>
<path class="cls-1" d="M402.54,951.68V822.58H679.2v72.91c-1.38-3.61-4.13-4.82-7.84-4.81q-92.91.05-185.82,0c-5.14,0-7.34,2.26-7.34,7.45q0,16.88,0,33.76a16.64,16.64,0,0,0,.07,2.16,6.15,6.15,0,0,0,6.14,5.64,5.88,5.88,0,0,0,5.7-6c0.12-6.39,0-12.78.06-19.17,0-1.22,0-2.45,0-4.45l52.53,46.48L490.17,1009c0-.36,0-1.34,0-2.32,0-11.52,0-23,0-34.57,0-4.27-2.31-6.92-5.87-7s-6,2.64-6.09,7.06c0,2,0,3.92,0,6.17H475q-12.69,0-25.39,0a20.32,20.32,0,0,0-3.49.27,5.64,5.64,0,0,0-4.79,6.16c0.23,3.51,2.81,5.58,7.25,5.6,8.82,0,17.65,0,26.47,0h3.13v3.22q0,14.45,0,28.9c0,6.56,1.94,8.47,8.58,8.47q92.1,0,184.2.05c3.68,0,6.48-.95,8.23-4.3v72.41H402.54q0-44,0-88.08c1.49,3.52,4.22,4.71,7.93,4.69,13.4-.09,26.8,0,40.2,0a14.86,14.86,0,0,0,3.21-.32,5.35,5.35,0,0,0,4.38-4.53c0.83-4.33-2-7.2-7.37-7.21-13.49,0-27,0-40.47,0-3.68,0-6.45,1.18-7.88,4.75v-54c1.47,3.72,4.39,4.78,8.15,4.77q48.49-.07,97,0a15.94,15.94,0,0,0,4-.44,5.74,5.74,0,0,0,4-6.48c-0.61-3.51-3-5.13-7.66-5.13q-48.76,0-97.52,0C406.79,947,404,948.16,402.54,951.68ZM441.65,926q10.39,0,20.79,0c5.17,0,8-2.11,8.08-5.93s-2.93-6.12-8.2-6.12q-20.52,0-41,0a16.55,16.55,0,0,0-3.73.39,5.62,5.62,0,0,0-4.39,6c0.19,3.49,2.64,5.61,6.89,5.66C427.25,926.07,434.45,926,441.65,926Z" transform="translate(-402.54 -822.58)"/>
<path class="cls-1" d="M667.09,903v106l-51.62-51.62-0.73.46c0.65-.59,1.29-1.2,2-1.76q17.3-14.68,34.6-29.37a27.58,27.58,0,0,0,3.51-3.34,5.84,5.84,0,0,0-7.28-8.8,16.79,16.79,0,0,0-2.84,2q-31.43,26.63-62.83,53.29l-3.09,2.6L500.28,903H667.09Z" transform="translate(-402.54 -822.58)"/>
<path class="cls-1" d="M658,1018.83H499.41l53.35-53.33c2.72,2.39,5.8,5.1,8.88,7.81,4,3.58,8.06,7.19,12.14,10.74,3.62,3.15,6.11,3.17,9.81.06,7.23-6.08,14.42-12.21,21.48-18.2Z" transform="translate(-402.54 -822.58)"/>
</svg>